<svg width="24" height="24" viewBox="0 0 24 24" fill="none" xmlns="http://www.w3.org/2000/svg">
<path d="M21.6 0H7.2C5.88 0 4.8 1.08 4.8 2.4V16.8C4.8 18.12 5.88 19.2 7.2 19.2H21.6C22.92 19.2 24 18.12 24 16.8V2.4C24 1.08 22.92 0 21.6 0ZM11.4 9C11.4 9.996 10.596 10.8 9.6 10.8H8.4V13.2H6.6V6H9.6C10.596 6 11.4 6.804 11.4 7.8V9ZM17.4 11.4C17.4 12.396 16.596 13.2 15.6 13.2H12.6V6H15.6C16.596 6 17.4 6.804 17.4 7.8V11.4ZM22.2 7.8H20.4V9H22.2V10.8H20.4V13.2H18.6V6H22.2V7.8ZM8.4 9H9.6V7.8H8.4V9ZM2.4 4.8H0V21.6C0 22.92 1.08 24 2.4 24H19.2V21.6H2.4V4.8ZM14.4 11.4H15.6V7.8H14.4V11.4Z" fill="#282324"/>
</svg>
