<svg width="46" height="46" viewBox="0 0 46 46" fill="none" xmlns="http://www.w3.org/2000/svg">
<rect width="46" height="46" rx="8" fill="#5CB85C"/>
<mask id="mask0_542_33" style="mask-type:alpha" maskUnits="userSpaceOnUse" x="11" y="11" width="24" height="24">
<rect x="11" y="11" width="24" height="24" fill="#C4C4C4"/>
</mask>
<g mask="url(#mask0_542_33)">
<path d="M24.5714 13C19.3648 13 15.1429 17.2539 15.1429 22.5H12L16.0752 26.6061L16.1486 26.7539L20.381 22.5H17.2381C17.2381 18.415 20.5171 15.1111 24.5714 15.1111C28.6257 15.1111 31.9048 18.415 31.9048 22.5C31.9048 26.585 28.6257 29.8889 24.5714 29.8889C22.5495 29.8889 20.7162 29.055 19.3962 27.7144L17.9086 29.2133C19.6162 30.9339 21.9629 32 24.5714 32C29.7781 32 34 27.7461 34 22.5C34 17.2539 29.7781 13 24.5714 13ZM23.5238 18.2778V23.5556L28.0076 26.2367L28.7619 24.9594L25.0952 22.7639V18.2778H23.5238Z" fill="white"/>
</g>
</svg>
